<svg width="70" height="25" viewBox="0 0 70 25" fill="none" xmlns="http://www.w3.org/2000/svg">
<path d="M6.72229 5.804C6.42362 5.868 6.18895 5.98533 6.01829 6.156C5.97562 6.19867 5.93295 6.27333 5.89029 6.38C5.86895 6.46533 5.84762 6.52933 5.82629 6.572C5.78362 6.636 5.74095 7.00933 5.69829 7.692C5.67695 8.37467 5.65562 9.18533 5.63429 10.124C5.61295 11.0627 5.60229 12.044 5.60229 13.068C5.60229 14.0707 5.63429 14.9453 5.69829 15.692C5.76229 16.3107 5.92229 16.9187 6.17829 17.516C6.45562 18.092 6.90362 18.4653 7.52229 18.636C7.99162 18.6787 8.42895 18.6147 8.83429 18.444C9.26095 18.252 9.58095 17.9427 9.79429 17.516C10.029 17.0253 10.125 16.5133 10.0823 15.98C10.061 15.4253 10.1036 14.8813 10.2103 14.348C10.509 14.3907 10.8396 14.4013 11.2023 14.38C11.5863 14.3587 11.9703 14.348 12.3543 14.348C12.7383 14.348 13.1116 14.3587 13.4743 14.38C13.8583 14.4013 14.1996 14.4547 14.4983 14.54C14.861 15.6493 14.957 16.7587 14.7863 17.868C14.6156 18.956 14.2423 19.9373 13.6663 20.812C13.0903 21.6867 12.333 22.412 11.3943 22.988C10.477 23.5427 9.43162 23.8307 8.25829 23.852C7.49029 23.9587 6.70095 23.9587 5.89029 23.852C5.07962 23.7667 4.32229 23.564 3.61829 23.244C2.91429 22.9027 2.31695 22.4333 1.82629 21.836C1.35695 21.2387 1.07962 20.492 0.994285 19.596C0.951619 18.828 0.919619 18.028 0.898285 17.196C0.876952 16.364 0.855619 15.436 0.834285 14.412C0.834285 13.3667 0.834285 12.1933 0.834285 10.892C0.855619 9.56933 0.876952 8.044 0.898285 6.316C0.855619 5.95333 0.866285 5.59067 0.930285 5.228C1.01562 4.844 1.12229 4.492 1.25029 4.172C1.44229 3.61733 1.67695 3.10533 1.95429 2.636C2.25295 2.16667 2.60495 1.75067 3.01029 1.388C3.24495 1.21733 3.50095 1.07866 3.77829 0.971998C4.05562 0.843999 4.34362 0.737332 4.64229 0.651999C5.62362 0.331999 6.59429 0.203999 7.55429 0.268C8.51429 0.331999 9.41029 0.555998 10.2423 0.939999C11.0956 1.30267 11.8636 1.79333 12.5463 2.412C13.229 3.03067 13.773 3.74533 14.1783 4.556C14.5836 5.34533 14.829 6.20933 14.9143 7.148C14.9996 8.08667 14.8716 9.04667 14.5303 10.028C13.741 10.1987 12.9623 10.2627 12.1943 10.22C11.4476 10.156 10.669 10.0493 9.85829 9.9C9.79429 9.49467 9.75162 9.036 9.73029 8.524C9.73029 8.012 9.67695 7.54267 9.57029 7.116C9.46362 6.668 9.26095 6.30533 8.96229 6.028C8.68495 5.75067 8.23695 5.62267 7.61829 5.644C7.34095 5.68667 7.04229 5.74 6.72229 5.804ZM28.5233 0.875999C28.9286 0.875999 29.2913 0.886666 29.6113 0.907999L30.4753 23.308C30.1126 23.372 29.718 23.4147 29.2913 23.436C28.886 23.4573 28.4806 23.468 28.0753 23.468C27.6913 23.468 27.3073 23.468 26.9233 23.468C26.5606 23.468 26.2513 23.4787 25.9953 23.5H25.9633C25.8566 22.796 25.782 22.0707 25.7393 21.324C25.718 20.556 25.6966 19.7987 25.6753 19.052C25.6753 18.3053 25.6646 17.5587 25.6433 16.812C25.622 16.0653 25.5686 15.3507 25.4833 14.668L25.4513 14.636C24.8326 14.5293 24.214 14.476 23.5953 14.476C22.9766 14.476 22.358 14.5507 21.7393 14.7C21.6753 15.4467 21.6433 16.1827 21.6433 16.908C21.6646 17.6333 21.686 18.3587 21.7073 19.084C21.7286 19.8093 21.7286 20.524 21.7073 21.228C21.7073 21.9107 21.654 22.5933 21.5473 23.276C21.2913 23.4253 20.95 23.5 20.5233 23.5C20.0966 23.5 19.67 23.4787 19.2433 23.436C18.8166 23.3933 18.4113 23.3613 18.0273 23.34C17.6646 23.3187 17.3873 23.3613 17.1953 23.468C17.1526 22.8707 17.0993 22.06 17.0353 21.036C16.9926 19.9907 16.95 18.828 16.9073 17.548C16.8646 16.2467 16.822 14.8707 16.7793 13.42C16.758 11.9693 16.7366 10.5187 16.7153 9.068C16.694 7.596 16.6833 6.188 16.6833 4.844C16.7046 3.47867 16.726 2.252 16.7473 1.164V1.132H16.7793H16.8433C17.1633 1.196 17.494 1.21733 17.8353 1.196C18.198 1.17467 18.55 1.15333 18.8913 1.132C19.254 1.11067 19.606 1.1 19.9473 1.1C20.2886 1.1 20.6086 1.14267 20.9073 1.228C21.0993 2.7 21.1953 4.12933 21.1953 5.516C21.1953 6.90267 21.3233 8.27867 21.5793 9.644H21.6113C22.1446 9.772 22.7206 9.81467 23.3393 9.772C23.958 9.708 24.534 9.65467 25.0673 9.612H25.0993C25.2273 8.14 25.2913 6.764 25.2913 5.484C25.3126 4.204 25.2913 2.796 25.2273 1.26C25.4833 1.17466 25.7926 1.1 26.1553 1.036C26.5393 0.971999 26.934 0.929332 27.3393 0.907999C27.7446 0.865333 28.1393 0.854666 28.5233 0.875999ZM35.564 1.004C36.076 1.02533 36.812 1.02533 37.772 1.004H38.54V1.132C38.54 2.96667 38.508 4.812 38.444 6.668C38.4014 8.524 38.3587 10.3907 38.316 12.268C38.2947 14.124 38.2947 15.98 38.316 17.836C38.3374 19.692 38.4014 21.5267 38.508 23.34C38.3374 23.5107 37.9747 23.6067 37.42 23.628C36.8867 23.6707 36.3 23.6813 35.66 23.66C35.0414 23.6387 34.444 23.6067 33.868 23.564C33.292 23.5427 32.8974 23.564 32.684 23.628C32.8334 21.708 32.8974 19.7773 32.876 17.836C32.8547 15.8947 32.812 13.9747 32.748 12.076C32.7054 10.156 32.6734 8.268 32.652 6.412C32.652 4.53467 32.748 2.7 32.94 0.907999V0.844C33.0467 0.822666 33.2494 0.833332 33.548 0.875999C33.868 0.897333 34.1027 0.907999 34.252 0.907999C34.636 0.929332 35.0734 0.961332 35.564 1.004ZM54.3405 20.012C54.3405 20.2253 54.3512 20.4173 54.3725 20.588C54.4152 21.356 54.4365 21.9427 54.4365 22.348C54.4365 22.732 54.4045 23.02 54.3405 23.212C54.2979 23.3827 54.2125 23.4787 54.0845 23.5C53.9565 23.5 53.7752 23.5 53.5405 23.5C53.3059 23.4787 52.9965 23.4787 52.6125 23.5C52.2499 23.5213 51.6205 23.5427 50.7245 23.564C49.8499 23.5853 48.6339 23.596 47.0765 23.596C45.5405 23.596 43.4819 23.5747 40.9005 23.532V22.956C40.9645 21.356 41.0179 19.916 41.0605 18.636C41.1032 17.3347 41.1245 16.1293 41.1245 15.02C41.1459 13.8893 41.1565 12.8013 41.1565 11.756C41.1565 10.7107 41.1459 9.644 41.1245 8.556C41.1032 7.468 41.0819 6.316 41.0605 5.1C41.0392 3.86267 41.0179 2.49733 40.9965 1.004C41.2099 0.918666 41.5405 0.854666 41.9885 0.811998C42.4365 0.747999 42.9165 0.716 43.4285 0.716C43.9405 0.716 44.4419 0.747999 44.9325 0.811998C45.4232 0.875999 45.8179 0.971999 46.1165 1.1C46.0739 2.48667 46.0525 3.916 46.0525 5.388C46.0739 6.83867 46.0952 8.3 46.1165 9.772C46.1379 11.244 46.1485 12.716 46.1485 14.188C46.1699 15.6387 46.1699 17.0467 46.1485 18.412V18.444C46.2979 18.4013 46.5752 18.3907 46.9805 18.412C47.4072 18.412 47.8979 18.4227 48.4525 18.444C49.0072 18.4653 49.5939 18.4973 50.2125 18.54C50.8525 18.5613 51.4499 18.5827 52.0045 18.604C52.5805 18.6253 53.0819 18.6467 53.5085 18.668C53.9565 18.668 54.2659 18.6573 54.4365 18.636C54.4365 18.8707 54.4259 19.1053 54.4045 19.34C54.3832 19.5533 54.3619 19.7773 54.3405 20.012ZM69.0905 20.012C69.0905 20.2253 69.1012 20.4173 69.1225 20.588C69.1652 21.356 69.1865 21.9427 69.1865 22.348C69.1865 22.732 69.1545 23.02 69.0905 23.212C69.0479 23.3827 68.9625 23.4787 68.8345 23.5C68.7065 23.5 68.5252 23.5 68.2905 23.5C68.0559 23.4787 67.7465 23.4787 67.3625 23.5C66.9999 23.5213 66.3705 23.5427 65.4745 23.564C64.5999 23.5853 63.3839 23.596 61.8265 23.596C60.2905 23.596 58.2319 23.5747 55.6505 23.532V22.956C55.7145 21.356 55.7679 19.916 55.8105 18.636C55.8532 17.3347 55.8745 16.1293 55.8745 15.02C55.8959 13.8893 55.9065 12.8013 55.9065 11.756C55.9065 10.7107 55.8959 9.644 55.8745 8.556C55.8532 7.468 55.8319 6.316 55.8105 5.1C55.7892 3.86267 55.7679 2.49733 55.7465 1.004C55.9599 0.918666 56.2905 0.854666 56.7385 0.811998C57.1865 0.747999 57.6665 0.716 58.1785 0.716C58.6905 0.716 59.1919 0.747999 59.6825 0.811998C60.1732 0.875999 60.5679 0.971999 60.8665 1.1C60.8239 2.48667 60.8025 3.916 60.8025 5.388C60.8239 6.83867 60.8452 8.3 60.8665 9.772C60.8879 11.244 60.8985 12.716 60.8985 14.188C60.9199 15.6387 60.9199 17.0467 60.8985 18.412V18.444C61.0479 18.4013 61.3252 18.3907 61.7305 18.412C62.1572 18.412 62.6479 18.4227 63.2025 18.444C63.7572 18.4653 64.3439 18.4973 64.9625 18.54C65.6025 18.5613 66.1999 18.5827 66.7545 18.604C67.3305 18.6253 67.8319 18.6467 68.2585 18.668C68.7065 18.668 69.0159 18.6573 69.1865 18.636C69.1865 18.8707 69.1759 19.1053 69.1545 19.34C69.1332 19.5533 69.1119 19.7773 69.0905 20.012Z" fill="white"/>
</svg>
