<svg width="10" height="11" viewBox="0 0 10 11" fill="none" xmlns="http://www.w3.org/2000/svg">
<path d="M4.5 4H5.5V3H4.5M5 9.5C2.795 9.5 1 7.705 1 5.5C1 3.295 2.795 1.5 5 1.5C7.205 1.5 9 3.295 9 5.5C9 7.705 7.205 9.5 5 9.5ZM5 0.5C4.34339 0.5 3.69321 0.629329 3.08658 0.880602C2.47995 1.13188 1.92876 1.50017 1.46447 1.96447C0.526784 2.90215 0 4.17392 0 5.5C0 6.82608 0.526784 8.09785 1.46447 9.03553C1.92876 9.49983 2.47995 9.86812 3.08658 10.1194C3.69321 10.3707 4.34339 10.5 5 10.5C6.32608 10.5 7.59785 9.97322 8.53553 9.03553C9.47322 8.09785 10 6.82608 10 5.5C10 4.84339 9.87067 4.19321 9.6194 3.58658C9.36812 2.97995 8.99983 2.42876 8.53553 1.96447C8.07124 1.50017 7.52005 1.13188 6.91342 0.880602C6.30679 0.629329 5.65661 0.5 5 0.5ZM4.5 8H5.5V5H4.5V8Z" fill="white"/>
</svg>
