<svg width="30" height="26" viewBox="0 0 30 26" fill="none" xmlns="http://www.w3.org/2000/svg">
<path d="M25.6553 2.36157L20.8172 3.20657L24.1904 7.04157L26.6155 6.60824L25.6553 2.36157ZM17.1979 3.83491L14.7727 4.25741L18.1582 8.08157L20.571 7.65907L17.1979 3.83491ZM11.1657 4.87491L8.74055 5.31907L12.126 9.14324L14.5388 8.72074L11.1657 4.87491ZM5.12123 5.95824L3.91479 6.16407C3.27511 6.27654 2.7123 6.60781 2.34992 7.08513C1.98755 7.56245 1.85523 8.14681 1.98203 8.70991L2.46214 10.8332L8.49434 9.78241L5.12123 5.95824ZM2.46214 10.8332V21.6666C2.46214 22.8691 3.5701 23.8332 4.92426 23.8332H24.6212C25.9877 23.8332 27.0833 22.8691 27.0833 21.6666V10.8332H2.46214Z" fill="white"/>
</svg>
